<?xml version="1.0" encoding="UTF-8" standalone="no"?>
<!DOCTYPE svg PUBLIC "-//W3C//DTD SVG 20010904//EN"
              "http://www.w3.org/TR/2001/REC-SVG-20010904/DTD/svg10.dtd">

<svg xmlns="http://www.w3.org/2000/svg"
     width="1in" height="1in"
     viewBox="0 0 300 300">
  <path id="Selection"
        fill="black" stroke="black" stroke-width="1"
        d="M 0.00,0.00
           C 0.00,0.00 300.00,0.00 300.00,0.00
             300.00,0.00 300.00,300.00 300.00,300.00
             300.00,300.00 0.00,300.00 0.00,300.00
             0.00,300.00 0.00,0.00 0.00,0.00 Z
           M 70.00,25.10
           C 44.91,29.98 25.12,49.70 25.00,76.00
             25.00,76.00 25.00,223.00 25.00,223.00
             25.04,251.60 48.40,274.96 77.00,275.00
             77.00,275.00 223.00,275.00 223.00,275.00
             251.24,274.96 274.96,251.24 275.00,223.00
             275.00,223.00 275.00,77.00 275.00,77.00
             274.96,48.36 251.64,25.04 223.00,25.10
             223.00,25.10 123.00,25.10 123.00,25.10
             123.00,25.10 70.00,25.10 70.00,25.10 Z" />
</svg>
